# xmcd
#
# Track frame offsets:
#	182
#	14560
#	28707
#	41517
#	54162
#	67800
#	74960
#	81540
#	93430
#	105125
#	116627
#	129402
#	142845
#	156062
#	169745
#	180640
#	190950
#	197927
#	206462
#	218702
#	230422
#	239840
#	251145
#	263577
#	276602
#	287697
#	299467
#	311727
#	326390
#	336972
#	353107
#	356910
#
# Disc length: 4791 seconds
#
# Revision: 3
# Processed by: cddbd v1.5.1PL0 Copyright (c) Steve Scherf et al.
# Submitted via: EasyCDDAExtractor 7.5.2.1
#
DISCID=f612b520
DTITLE=Rogers Roy - Happy Trails: The Roy Rogers Collection 1937-90 - Disc 3
DYEAR=1994
DGENRE=Country
TTITLE0=Dust
TTITLE1=I´m An Old Cowhand (From The Rio Grande)
TTITLE2=My Little Buckaroo
TTITLE3=Blue Shadows On The Trail
TTITLE4=(There'lll Never Be Another) Pecos Bill
TTITLE5=Rose Of Ol´ Pawnee
TTITLE6=Candy Kisses
TTITLE7=Don't Ever Fall In Love With A Cowboy
TTITLE8=Stampede
TTITLE9=May The Good Lord Take A Likin' To You
TTITLE10=A Four-Legged Friend
TTITLE11=There's A Cloud In My Valley Of Sunshine
TTITLE12=Happy Trails
TTITLE13=California Rose
TTITLE14=Hazy Mountains
TTITLE15=Tumbling Tumbleweeds
TTITLE16=Alla En El Rancho Grande
TTITLE17=The Oregon Trail
TTITLE18=That Lucky Old Sun (Just Rolls Around Heaven All Day)
TTITLE19=San Fernando Valley
TTITLE20=The Strawberry Roan
TTITLE21=Ol' Man River
TTITLE22=River Of No Return
TTITLE23=Peace In The Valley
TTITLE24=Money Can´T Buy Love
TTITLE25=Lovenworth
TTITLE26=Hoppy, Gene And Me
TTITLE27=Lord Have Mercy On My Soul (A Sinner's Prayer)
TTITLE28=Alive And Kickin'
TTITLE29=King Of The Cowboys
TTITLE30=Roy Rogers Riders Club Prayer
TTITLE31=Happy Trails
EXTD=The Roy Rogers Collection (1937 - 1990)
EXTT0=
EXTT1=
EXTT2=
EXTT3=
EXTT4=
EXTT5=
EXTT6=
EXTT7=
EXTT8=
EXTT9=
EXTT10=
EXTT11=
EXTT12=
EXTT13=
EXTT14=
EXTT15=
EXTT16=
EXTT17=
EXTT18=
EXTT19=
EXTT20=
EXTT21=
EXTT22=
EXTT23=
EXTT24=
EXTT25=
EXTT26=
EXTT27=
EXTT28=
EXTT29=
EXTT30=
EXTT31=
PLAYORDER=
